#include "../../external/hUGEDriver/include/hUGEDriver.h"
#include <stddef.h>

static const unsigned char order_cnt = 8;

static const unsigned char P0[] = {
    DN(E_5, 2, 0xC0E), DN(E_5, 2, 0xC0A), DN(E_5, 2, 0xC07), DN(E_5, 2, 0xC03),
    DN(___, 0, 0x000), DN(___, 0, 0x000), DN(___, 0, 0x000), DN(___, 0, 0x000),
    DN(___, 0, 0x000), DN(___, 0, 0x000), DN(___, 0, 0x000), DN(___, 0, 0x000),
    DN(___, 0, 0x000), DN(___, 0, 0x000), DN(___, 0, 0x000), DN(___, 0, 0x000),
    DN(___, 0, 0x000), DN(___, 0, 0x000), DN(___, 0, 0x000), DN(___, 0, 0x000),
    DN(___, 0, 0x000), DN(___, 0, 0x000), DN(___, 0, 0x000), DN(___, 0, 0x000),
    DN(___, 0, 0x000), DN(___, 0, 0x000), DN(___, 0, 0x000), DN(___, 0, 0x000),
    DN(B_4, 2, 0xC0E), DN(B_4, 2, 0xC0A), DN(B_4, 2, 0xC07), DN(B_4, 2, 0xC03),
    DN(A_4, 2, 0xC0E), DN(A_4, 2, 0xC0A), DN(A_4, 2, 0xC07), DN(A_4, 2, 0xC03),
    DN(___, 0, 0x000), DN(___, 0, 0x000), DN(___, 0, 0x000), DN(___, 0, 0x000),
    DN(___, 0, 0x000), DN(___, 0, 0x000), DN(___, 0, 0x000), DN(___, 0, 0x000),
    DN(B_4, 2, 0xC0E), DN(B_4, 2, 0xC0A), DN(B_4, 2, 0xC07), DN(B_4, 2, 0xC03),
    DN(___, 0, 0x000), DN(___, 0, 0x000), DN(___, 0, 0x000), DN(___, 0, 0x000),
    DN(___, 0, 0x000), DN(___, 0, 0x000), DN(___, 0, 0x000), DN(___, 0, 0x000),
    DN(___, 0, 0x000), DN(___, 0, 0x000), DN(___, 0, 0x000), DN(___, 0, 0x000),
    DN(___, 0, 0x000), DN(___, 0, 0x000), DN(___, 0, 0x000), DN(___, 0, 0x000),
};
static const unsigned char P1[] = {
    DN(___, 0, 0xF97), DN(___, 0, 0x000), DN(___, 0, 0x000), DN(___, 0, 0x000),
    DN(G_5, 4, 0xC0A), DN(G_5, 4, 0xC07), DN(___, 0, 0xE00), DN(___, 0, 0x000),
    DN(B_5, 4, 0xC0A), DN(B_5, 4, 0xC07), DN(B_5, 4, 0xC03), DN(B_5, 4, 0xC02),
    DN(D_5, 4, 0xC0A), DN(D_5, 4, 0xC07), DN(G_5, 4, 0xC0A), DN(G_5, 4, 0xC07),
    DN(___, 0, 0xE00), DN(___, 0, 0x000), DN(B_5, 4, 0xC0A), DN(B_5, 4, 0xC07),
    DN(B_5, 4, 0xC03), DN(B_5, 4, 0xC02), DN(E_6, 4, 0xC0A), DN(E_6, 4, 0xC07),
    DN(E_6, 4, 0xC03), DN(E_6, 4, 0xC02), DN(G_5, 4, 0xC0A), DN(G_5, 4, 0xC07),
    DN(B_5, 4, 0xC0A), DN(B_5, 4, 0xC07), DN(___, 0, 0xE00), DN(___, 0, 0x000),
    DN(E_5, 4, 0xC0A), DN(E_5, 4, 0xC07), DN(___, 0, 0xE00), DN(___, 0, 0x000),
    DN(G_5, 4, 0xC0A), DN(G_5, 4, 0xC07), DN(___, 0, 0xE00), DN(___, 0, 0x000),
    DN(B_5, 4, 0xC0A), DN(B_5, 4, 0xC07), DN(B_5, 4, 0xC03), DN(B_5, 4, 0xC02),
    DN(D_5, 4, 0xC0A), DN(D_5, 4, 0xC07), DN(G_5, 4, 0xC0A), DN(G_5, 4, 0xC07),
    DN(___, 0, 0xE00), DN(___, 0, 0x000), DN(B_5, 4, 0xC0A), DN(B_5, 4, 0xC07),
    DN(B_5, 4, 0xC03), DN(B_5, 4, 0xC02), DN(E_6, 4, 0xC0A), DN(E_6, 4, 0xC07),
    DN(E_6, 4, 0xC03), DN(E_6, 4, 0xC02), DN(G_5, 4, 0xC0A), DN(G_5, 4, 0xC07),
    DN(B_5, 4, 0xC0A), DN(B_5, 4, 0xC07), DN(B_5, 4, 0xC03), DN(B_5, 4, 0xC02),
};
static const unsigned char P2[] = {
    DN(E_5, 14, 0xC0F), DN(E_5, 14, 0xC08), DN(___, 0, 0xE00),
    DN(___, 0, 0x000),  DN(E_5, 14, 0xC0F), DN(E_5, 14, 0xC08),
    DN(___, 0, 0xE00),  DN(___, 0, 0x000),  DN(E_5, 14, 0xC0F),
    DN(E_5, 14, 0xC08), DN(E_5, 14, 0xC08), DN(E_5, 14, 0xC04),
    DN(D_5, 14, 0xC0F), DN(D_5, 14, 0xC08), DN(E_5, 14, 0xC0F),
    DN(E_5, 14, 0xC08), DN(___, 0, 0xE00),  DN(___, 0, 0x000),
    DN(E_5, 14, 0xC0F), DN(E_5, 14, 0xC08), DN(E_5, 14, 0xC0F),
    DN(E_5, 14, 0xC08), DN(___, 0, 0xE00),  DN(___, 0, 0x000),
    DN(E_5, 14, 0xC0F), DN(E_5, 14, 0xC08), DN(E_5, 14, 0xC08),
    DN(E_5, 14, 0xC04), DN(D_5, 14, 0xC0F), DN(D_5, 14, 0xC08),
    DN(___, 0, 0xE00),  DN(___, 0, 0x000),  DN(E_5, 14, 0xC0F),
    DN(E_5, 14, 0xC08), DN(___, 0, 0xE00),  DN(___, 0, 0x000),
    DN(E_5, 14, 0xC0F), DN(E_5, 14, 0xC08), DN(___, 0, 0xE00),
    DN(___, 0, 0x000),  DN(E_5, 14, 0xC0F), DN(E_5, 14, 0xC08),
    DN(E_5, 14, 0xC08), DN(E_5, 14, 0xC04), DN(D_5, 14, 0xC0F),
    DN(D_5, 14, 0xC08), DN(E_5, 14, 0xC0F), DN(E_5, 14, 0xC08),
    DN(___, 0, 0xE00),  DN(___, 0, 0x000),  DN(E_5, 14, 0xC0F),
    DN(E_5, 14, 0xC08), DN(E_5, 14, 0xC0F), DN(E_5, 14, 0xC08),
    DN(___, 0, 0xE00),  DN(___, 0, 0x000),  DN(E_5, 14, 0xC0F),
    DN(E_5, 14, 0xC08), DN(E_5, 14, 0xC08), DN(E_5, 14, 0xC04),
    DN(D_5, 14, 0xC0F), DN(D_5, 14, 0xC08), DN(___, 0, 0xE00),
    DN(___, 0, 0x000),
};
static const unsigned char P3[] = {
    DN(___, 0, 0xF05), DN(___, 0, 0x000), DN(___, 0, 0x000), DN(___, 0, 0x000),
    DN(Ds7, 1, 0xC07), DN(Ds7, 1, 0xC03), DN(Ds7, 1, 0xC02), DN(Ds7, 1, 0xC01),
    DN(Ds7, 1, 0xC07), DN(Ds7, 1, 0xC03), DN(Ds7, 1, 0xC02), DN(Ds7, 1, 0xC01),
    DN(___, 0, 0xE00), DN(___, 0, 0x000), DN(___, 0, 0x000), DN(___, 0, 0x000),
    DN(___, 0, 0x000), DN(___, 0, 0x000), DN(___, 0, 0x000), DN(___, 0, 0x000),
    DN(___, 0, 0x000), DN(___, 0, 0x000), DN(___, 0, 0x000), DN(___, 0, 0x000),
    DN(___, 0, 0x000), DN(___, 0, 0x000), DN(___, 0, 0x000), DN(___, 0, 0x000),
    DN(___, 0, 0x000), DN(___, 0, 0x000), DN(___, 0, 0x000), DN(___, 0, 0x000),
    DN(Ds7, 1, 0xC07), DN(Ds7, 1, 0xC03), DN(Ds7, 1, 0xC02), DN(Ds7, 1, 0xC01),
    DN(Ds7, 1, 0xC07), DN(Ds7, 1, 0xC03), DN(Ds7, 1, 0xC02), DN(Ds7, 1, 0xC01),
    DN(Ds7, 1, 0xC07), DN(Ds7, 1, 0xC03), DN(Ds7, 1, 0xC02), DN(Ds7, 1, 0xC01),
    DN(___, 0, 0xE00), DN(___, 0, 0x000), DN(___, 0, 0x000), DN(___, 0, 0x000),
    DN(___, 0, 0x000), DN(___, 0, 0x000), DN(___, 0, 0x000), DN(___, 0, 0x000),
    DN(___, 0, 0x000), DN(___, 0, 0x000), DN(___, 0, 0x000), DN(___, 0, 0x000),
    DN(___, 0, 0x000), DN(___, 0, 0x000), DN(___, 0, 0x000), DN(___, 0, 0x000),
    DN(___, 0, 0x000), DN(___, 0, 0x000), DN(___, 0, 0x000), DN(___, 0, 0x000),
};
static const unsigned char P10[] = {
    DN(A_4, 2, 0xC0E), DN(A_4, 2, 0xC0A), DN(A_4, 2, 0xC07), DN(A_4, 2, 0xC03),
    DN(___, 0, 0x000), DN(___, 0, 0x000), DN(___, 0, 0x000), DN(___, 0, 0x000),
    DN(A_4, 2, 0xC0E), DN(A_4, 2, 0xC0A), DN(A_4, 2, 0xC07), DN(A_4, 2, 0xC03),
    DN(A_5, 2, 0xC0E), DN(A_5, 2, 0xC0A), DN(A_5, 2, 0xC07), DN(A_5, 2, 0xC03),
    DN(___, 0, 0x000), DN(___, 0, 0x000), DN(___, 0, 0x000), DN(___, 0, 0x000),
    DN(B_4, 2, 0xC0E), DN(B_4, 2, 0xC0A), DN(B_4, 2, 0xC07), DN(B_4, 2, 0xC03),
    DN(A_5, 2, 0xC0E), DN(A_5, 2, 0xC0A), DN(A_5, 2, 0xC07), DN(A_5, 2, 0xC03),
    DN(___, 0, 0x000), DN(___, 0, 0x000), DN(___, 0, 0x000), DN(___, 0, 0x000),
    DN(G_5, 2, 0xC0E), DN(G_5, 2, 0xC0A), DN(G_5, 2, 0xC07), DN(G_5, 2, 0xC03),
    DN(___, 0, 0x000), DN(___, 0, 0x000), DN(___, 0, 0x000), DN(___, 0, 0x000),
    DN(___, 0, 0x000), DN(___, 0, 0x000), DN(___, 0, 0x000), DN(___, 0, 0x000),
    DN(D_5, 2, 0xC0E), DN(D_5, 2, 0xC0A), DN(D_5, 2, 0xC07), DN(D_5, 2, 0xC03),
    DN(___, 0, 0x000), DN(___, 0, 0x000), DN(___, 0, 0x000), DN(___, 0, 0x000),
    DN(___, 0, 0x000), DN(___, 0, 0x000), DN(___, 0, 0x000), DN(___, 0, 0x000),
    DN(___, 0, 0x000), DN(___, 0, 0x000), DN(___, 0, 0x000), DN(___, 0, 0x000),
    DN(Ds5, 2, 0xC0E), DN(Ds5, 2, 0xC0A), DN(Ds5, 2, 0xC07), DN(Ds5, 2, 0xC03),
};
static const unsigned char P11[] = {
    DN(D_5, 4, 0xC0A), DN(D_5, 4, 0xC07), DN(___, 0, 0xE00), DN(___, 0, 0x000),
    DN(G_5, 4, 0xC0A), DN(G_5, 4, 0xC07), DN(___, 0, 0xE00), DN(___, 0, 0x000),
    DN(A_5, 4, 0xC0A), DN(A_5, 4, 0xC07), DN(A_5, 4, 0xC03), DN(A_5, 4, 0xC02),
    DN(C_5, 4, 0xC0A), DN(C_5, 4, 0xC07), DN(G_5, 4, 0xC0A), DN(G_5, 4, 0xC07),
    DN(___, 0, 0xE00), DN(___, 0, 0x000), DN(A_5, 4, 0xC0A), DN(A_5, 4, 0xC07),
    DN(A_5, 4, 0xC03), DN(A_5, 4, 0xC02), DN(D_6, 4, 0xC0A), DN(D_6, 4, 0xC07),
    DN(D_6, 4, 0xC03), DN(D_6, 4, 0xC02), DN(G_5, 4, 0xC0A), DN(G_5, 4, 0xC07),
    DN(A_5, 4, 0xC0A), DN(A_5, 4, 0xC07), DN(___, 0, 0xE00), DN(___, 0, 0x000),
    DN(D_5, 4, 0xC0A), DN(D_5, 4, 0xC07), DN(___, 0, 0xE00), DN(___, 0, 0x000),
    DN(G_5, 4, 0xC0A), DN(G_5, 4, 0xC07), DN(___, 0, 0xE00), DN(___, 0, 0x000),
    DN(A_5, 4, 0xC0A), DN(A_5, 4, 0xC07), DN(A_5, 4, 0xC03), DN(A_5, 4, 0xC02),
    DN(C_5, 4, 0xC0A), DN(C_5, 4, 0xC07), DN(G_5, 4, 0xC0A), DN(G_5, 4, 0xC07),
    DN(___, 0, 0xE00), DN(___, 0, 0x000), DN(D_5, 4, 0xC0A), DN(D_5, 4, 0xC07),
    DN(D_5, 4, 0xC03), DN(D_5, 4, 0xC02), DN(A_4, 4, 0xC0A), DN(A_4, 4, 0xC07),
    DN(A_4, 4, 0xC03), DN(A_4, 4, 0xC02), DN(G_5, 4, 0xC0A), DN(G_5, 4, 0xC07),
    DN(G_5, 4, 0xC0A), DN(G_5, 4, 0xC07), DN(G_5, 4, 0xC03), DN(G_5, 4, 0xC02),
};
static const unsigned char P12[] = {
    DN(B_4, 14, 0xC0F), DN(B_4, 14, 0xC08), DN(___, 0, 0xE00),
    DN(___, 0, 0x000),  DN(B_4, 14, 0xC0F), DN(B_4, 14, 0xC08),
    DN(___, 0, 0xE00),  DN(___, 0, 0x000),  DN(B_4, 14, 0xC0F),
    DN(B_4, 14, 0xC08), DN(B_4, 14, 0xC08), DN(B_4, 14, 0xC04),
    DN(A_4, 14, 0xC0F), DN(A_4, 14, 0xC08), DN(B_4, 14, 0xC0F),
    DN(B_4, 14, 0xC08), DN(___, 0, 0xE00),  DN(___, 0, 0x000),
    DN(B_4, 14, 0xC0F), DN(B_4, 14, 0xC08), DN(B_4, 14, 0xC0F),
    DN(B_4, 14, 0xC08), DN(___, 0, 0xE00),  DN(___, 0, 0x000),
    DN(B_4, 14, 0xC0F), DN(B_4, 14, 0xC08), DN(B_4, 14, 0xC08),
    DN(B_4, 14, 0xC04), DN(A_4, 14, 0xC0F), DN(A_4, 14, 0xC08),
    DN(___, 0, 0xE00),  DN(___, 0, 0x000),  DN(B_4, 14, 0xC0F),
    DN(B_4, 14, 0xC08), DN(___, 0, 0xE00),  DN(___, 0, 0x000),
    DN(B_4, 14, 0xC0F), DN(B_4, 14, 0xC08), DN(___, 0, 0xE00),
    DN(___, 0, 0x000),  DN(B_4, 14, 0xC0F), DN(B_4, 14, 0xC08),
    DN(B_4, 14, 0xC08), DN(B_4, 14, 0xC04), DN(A_4, 14, 0xC0F),
    DN(A_4, 14, 0xC08), DN(B_4, 14, 0xC0F), DN(B_4, 14, 0xC08),
    DN(___, 0, 0xE00),  DN(___, 0, 0x000),  DN(B_4, 14, 0xC0F),
    DN(B_4, 14, 0xC08), DN(B_4, 14, 0xC0F), DN(B_4, 14, 0xC08),
    DN(___, 0, 0xE00),  DN(___, 0, 0x000),  DN(B_4, 14, 0xC0F),
    DN(B_4, 14, 0xC08), DN(B_4, 14, 0xC08), DN(B_4, 14, 0xC04),
    DN(As4, 14, 0xC0F), DN(As4, 14, 0xC08), DN(___, 0, 0xE00),
    DN(___, 0, 0x000),
};
static const unsigned char P13[] = {
    DN(___, 0, 0x000), DN(___, 0, 0x000), DN(___, 0, 0x000), DN(___, 0, 0x000),
    DN(Ds7, 1, 0xC07), DN(Ds7, 1, 0xC03), DN(Ds7, 1, 0xC02), DN(Ds7, 1, 0xC01),
    DN(Ds7, 1, 0xC07), DN(Ds7, 1, 0xC03), DN(Ds7, 1, 0xC02), DN(Ds7, 1, 0xC01),
    DN(___, 0, 0xE00), DN(___, 0, 0x000), DN(___, 0, 0x000), DN(___, 0, 0x000),
    DN(___, 0, 0x000), DN(___, 0, 0x000), DN(___, 0, 0x000), DN(___, 0, 0x000),
    DN(___, 0, 0x000), DN(___, 0, 0x000), DN(___, 0, 0x000), DN(___, 0, 0x000),
    DN(___, 0, 0x000), DN(___, 0, 0x000), DN(___, 0, 0x000), DN(___, 0, 0x000),
    DN(___, 0, 0x000), DN(___, 0, 0x000), DN(___, 0, 0x000), DN(___, 0, 0x000),
    DN(Ds7, 1, 0xC07), DN(Ds7, 1, 0xC03), DN(Ds7, 1, 0xC02), DN(Ds7, 1, 0xC01),
    DN(Ds7, 1, 0xC07), DN(Ds7, 1, 0xC03), DN(Ds7, 1, 0xC02), DN(Ds7, 1, 0xC01),
    DN(Ds7, 1, 0xC07), DN(Ds7, 1, 0xC03), DN(Ds7, 1, 0xC02), DN(Ds7, 1, 0xC01),
    DN(___, 0, 0xE00), DN(___, 0, 0x000), DN(___, 0, 0x000), DN(___, 0, 0x000),
    DN(___, 0, 0x000), DN(___, 0, 0x000), DN(___, 0, 0x000), DN(___, 0, 0x000),
    DN(___, 0, 0x000), DN(___, 0, 0x000), DN(___, 0, 0x000), DN(___, 0, 0x000),
    DN(___, 0, 0x000), DN(___, 0, 0x000), DN(___, 0, 0x000), DN(___, 0, 0x000),
    DN(___, 0, 0x000), DN(___, 0, 0x000), DN(___, 0, 0x000), DN(___, 0, 0x000),
};
static const unsigned char P20[] = {
    DN(E_5, 2, 0xC0E), DN(E_5, 2, 0xC0A), DN(E_5, 2, 0xC07), DN(E_5, 2, 0xC03),
    DN(___, 0, 0x000), DN(___, 0, 0x000), DN(___, 0, 0x000), DN(___, 0, 0x000),
    DN(E_5, 2, 0xC0E), DN(E_5, 2, 0xC0A), DN(E_5, 2, 0xC07), DN(E_5, 2, 0xC03),
    DN(E_5, 2, 0xC0E), DN(E_5, 2, 0xC0A), DN(E_5, 2, 0xC07), DN(E_5, 2, 0xC03),
    DN(___, 0, 0x000), DN(___, 0, 0x000), DN(___, 0, 0x000), DN(___, 0, 0x000),
    DN(___, 0, 0x000), DN(___, 0, 0x000), DN(___, 0, 0x000), DN(___, 0, 0x000),
    DN(___, 0, 0x000), DN(___, 0, 0x000), DN(___, 0, 0x000), DN(___, 0, 0x000),
    DN(B_5, 2, 0xC0E), DN(B_5, 2, 0xC0A), DN(B_5, 2, 0xC07), DN(B_5, 2, 0xC03),
    DN(A_5, 2, 0xC0E), DN(A_5, 2, 0xC0A), DN(A_5, 2, 0xC07), DN(A_5, 2, 0xC03),
    DN(___, 0, 0x000), DN(___, 0, 0x000), DN(___, 0, 0x000), DN(___, 0, 0x000),
    DN(___, 0, 0x000), DN(___, 0, 0x000), DN(___, 0, 0x000), DN(___, 0, 0x000),
    DN(E_5, 2, 0xC0E), DN(E_5, 2, 0xC0A), DN(E_5, 2, 0xC07), DN(E_5, 2, 0xC03),
    DN(___, 0, 0x000), DN(___, 0, 0x000), DN(___, 0, 0x000), DN(___, 0, 0x000),
    DN(___, 0, 0x000), DN(___, 0, 0x000), DN(___, 0, 0x000), DN(___, 0, 0x000),
    DN(___, 0, 0x000), DN(___, 0, 0x000), DN(___, 0, 0x000), DN(___, 0, 0x000),
    DN(___, 0, 0x000), DN(___, 0, 0x000), DN(___, 0, 0x000), DN(___, 0, 0x000),
};
static const unsigned char P21[] = {
    DN(A_4, 4, 0xC0A), DN(A_4, 4, 0xC07), DN(___, 0, 0xE00), DN(___, 0, 0x000),
    DN(C_5, 4, 0xC0A), DN(C_5, 4, 0xC07), DN(___, 0, 0xE00), DN(___, 0, 0x000),
    DN(E_5, 4, 0xC0A), DN(E_5, 4, 0xC07), DN(E_5, 4, 0xC03), DN(E_5, 4, 0xC02),
    DN(G_4, 4, 0xC0A), DN(G_4, 4, 0xC07), DN(C_5, 4, 0xC0A), DN(C_5, 4, 0xC07),
    DN(___, 0, 0xE00), DN(___, 0, 0x000), DN(E_5, 4, 0xC0A), DN(E_5, 4, 0xC07),
    DN(E_5, 4, 0xC03), DN(E_5, 4, 0xC02), DN(A_5, 4, 0xC0A), DN(A_5, 4, 0xC07),
    DN(A_5, 4, 0xC03), DN(A_5, 4, 0xC02), DN(C_5, 4, 0xC0A), DN(C_5, 4, 0xC07),
    DN(E_5, 4, 0xC0A), DN(E_5, 4, 0xC07), DN(___, 0, 0xE00), DN(___, 0, 0x000),
    DN(A_4, 4, 0xC0A), DN(A_4, 4, 0xC07), DN(___, 0, 0xE00), DN(___, 0, 0x000),
    DN(C_5, 4, 0xC0A), DN(C_5, 4, 0xC07), DN(___, 0, 0xE00), DN(___, 0, 0x000),
    DN(E_5, 4, 0xC0A), DN(E_5, 4, 0xC07), DN(E_5, 4, 0xC03), DN(E_5, 4, 0xC02),
    DN(G_4, 4, 0xC0A), DN(G_4, 4, 0xC07), DN(C_5, 4, 0xC0A), DN(C_5, 4, 0xC07),
    DN(___, 0, 0xE00), DN(___, 0, 0x000), DN(E_5, 4, 0xC0A), DN(E_5, 4, 0xC07),
    DN(E_5, 4, 0xC03), DN(E_5, 4, 0xC02), DN(A_5, 4, 0xC0A), DN(A_5, 4, 0xC07),
    DN(A_5, 4, 0xC03), DN(A_5, 4, 0xC02), DN(C_5, 4, 0xC0A), DN(C_5, 4, 0xC07),
    DN(E_5, 4, 0xC0A), DN(E_5, 4, 0xC07), DN(___, 0, 0xE00), DN(___, 0, 0x000),
};
static const unsigned char P22[] = {
    DN(A_4, 14, 0xC0F), DN(A_4, 14, 0xC08), DN(___, 0, 0xE00),
    DN(___, 0, 0x000),  DN(A_4, 14, 0xC0F), DN(A_4, 14, 0xC08),
    DN(___, 0, 0xE00),  DN(___, 0, 0x000),  DN(A_4, 14, 0xC0F),
    DN(A_4, 14, 0xC08), DN(A_4, 14, 0xC08), DN(A_4, 14, 0xC04),
    DN(E_4, 14, 0xC0F), DN(E_4, 14, 0xC08), DN(A_4, 14, 0xC0F),
    DN(A_4, 14, 0xC08), DN(___, 0, 0xE00),  DN(___, 0, 0x000),
    DN(A_4, 14, 0xC0F), DN(A_4, 14, 0xC08), DN(A_4, 14, 0xC0F),
    DN(A_4, 14, 0xC08), DN(___, 0, 0xE00),  DN(___, 0, 0x000),
    DN(A_4, 14, 0xC0F), DN(A_4, 14, 0xC08), DN(A_4, 14, 0xC08),
    DN(A_4, 14, 0xC04), DN(E_4, 14, 0xC0F), DN(E_4, 14, 0xC08),
    DN(___, 0, 0xE00),  DN(___, 0, 0x000),  DN(A_4, 14, 0xC0F),
    DN(A_4, 14, 0xC08), DN(___, 0, 0xE00),  DN(___, 0, 0x000),
    DN(A_4, 14, 0xC0F), DN(A_4, 14, 0xC08), DN(___, 0, 0xE00),
    DN(___, 0, 0x000),  DN(A_4, 14, 0xC0F), DN(A_4, 14, 0xC08),
    DN(A_4, 14, 0xC08), DN(A_4, 14, 0xC04), DN(E_4, 14, 0xC0F),
    DN(E_4, 14, 0xC08), DN(A_4, 14, 0xC0F), DN(A_4, 14, 0xC08),
    DN(___, 0, 0xE00),  DN(___, 0, 0x000),  DN(A_4, 14, 0xC0F),
    DN(A_4, 14, 0xC08), DN(A_4, 14, 0xC0F), DN(A_4, 14, 0xC08),
    DN(___, 0, 0xE00),  DN(___, 0, 0x000),  DN(A_4, 14, 0xC0F),
    DN(A_4, 14, 0xC08), DN(A_4, 14, 0xC08), DN(A_4, 14, 0xC04),
    DN(As4, 14, 0xC0F), DN(As4, 14, 0xC08), DN(___, 0, 0xE00),
    DN(___, 0, 0x000),
};
static const unsigned char P30[] = {
    DN(Fs5, 2, 0xC0E), DN(Fs5, 2, 0xC0A), DN(___, 0, 0xE00), DN(___, 0, 0x000),
    DN(Fs5, 2, 0xC0E), DN(Fs5, 2, 0xC0A), DN(___, 0, 0xE00), DN(___, 0, 0x000),
    DN(Fs5, 2, 0xC0E), DN(Fs5, 2, 0xC0A), DN(Fs5, 2, 0xC07), DN(Fs5, 2, 0xC03),
    DN(Fs5, 2, 0xC0E), DN(Fs5, 2, 0xC0A), DN(E_5, 2, 0xC0E), DN(E_5, 2, 0xC0A),
    DN(E_5, 2, 0xC07), DN(E_5, 2, 0xC03), DN(___, 0, 0x000), DN(___, 0, 0x000),
    DN(___, 0, 0x000), DN(___, 0, 0x000), DN(___, 0, 0x000), DN(___, 0, 0x000),
    DN(___, 0, 0x000), DN(___, 0, 0x000), DN(___, 0, 0x000), DN(___, 0, 0x000),
    DN(___, 0, 0x000), DN(___, 0, 0x000), DN(___, 0, 0x000), DN(___, 0, 0x000),
    DN(C_5, 2, 0xC0E), DN(C_5, 2, 0xC0A), DN(___, 0, 0xE00), DN(___, 0, 0x000),
    DN(C_5, 2, 0xC0E), DN(C_5, 2, 0xC0A), DN(___, 0, 0xE00), DN(___, 0, 0x000),
    DN(C_5, 2, 0xC0E), DN(C_5, 2, 0xC0A), DN(C_5, 2, 0xC07), DN(C_5, 2, 0xC03),
    DN(C_5, 2, 0xC0E), DN(C_5, 2, 0xC0A), DN(D_5, 2, 0xC0E), DN(D_5, 2, 0xC0A),
    DN(D_5, 2, 0xC07), DN(D_5, 2, 0xC03), DN(___, 0, 0x000), DN(___, 0, 0x000),
    DN(___, 0, 0x000), DN(___, 0, 0x000), DN(___, 0, 0x000), DN(___, 0, 0x000),
    DN(___, 0, 0x000), DN(___, 0, 0x000), DN(___, 0, 0x000), DN(___, 0, 0x000),
    DN(___, 0, 0x000), DN(___, 0, 0x000), DN(___, 0, 0x000), DN(___, 0, 0x000),
};
static const unsigned char P31[] = {
    DN(D_5, 4, 0xC0A), DN(D_5, 4, 0xC07), DN(___, 0, 0xE00), DN(___, 0, 0x000),
    DN(G_5, 4, 0xC0A), DN(G_5, 4, 0xC07), DN(___, 0, 0xE00), DN(___, 0, 0x000),
    DN(A_5, 4, 0xC0A), DN(A_5, 4, 0xC07), DN(A_5, 4, 0xC03), DN(A_5, 4, 0xC02),
    DN(C_5, 4, 0xC0A), DN(C_5, 4, 0xC07), DN(G_5, 4, 0xC0A), DN(G_5, 4, 0xC07),
    DN(___, 0, 0xE00), DN(___, 0, 0x000), DN(A_5, 4, 0xC0A), DN(A_5, 4, 0xC07),
    DN(A_5, 4, 0xC03), DN(A_5, 4, 0xC02), DN(D_6, 4, 0xC0A), DN(D_6, 4, 0xC07),
    DN(D_6, 4, 0xC03), DN(D_6, 4, 0xC02), DN(G_5, 4, 0xC0A), DN(G_5, 4, 0xC07),
    DN(A_5, 4, 0xC0A), DN(A_5, 4, 0xC07), DN(___, 0, 0xE00), DN(___, 0, 0x000),
    DN(D_5, 4, 0xC0A), DN(D_5, 4, 0xC07), DN(___, 0, 0xE00), DN(___, 0, 0x000),
    DN(G_5, 4, 0xC0A), DN(G_5, 4, 0xC07), DN(___, 0, 0xE00), DN(___, 0, 0x000),
    DN(A_5, 4, 0xC0A), DN(A_5, 4, 0xC07), DN(A_5, 4, 0xC03), DN(A_5, 4, 0xC02),
    DN(C_5, 4, 0xC0A), DN(C_5, 4, 0xC07), DN(G_5, 4, 0xC0A), DN(G_5, 4, 0xC07),
    DN(___, 0, 0xE00), DN(___, 0, 0x000), DN(D_5, 4, 0xC0A), DN(D_5, 4, 0xC07),
    DN(D_5, 4, 0xC03), DN(D_5, 4, 0xC02), DN(A_5, 4, 0xC0A), DN(A_5, 4, 0xC07),
    DN(A_5, 4, 0xC03), DN(A_5, 4, 0xC02), DN(B_5, 4, 0xC0A), DN(B_5, 4, 0xC07),
    DN(D_6, 4, 0xC0A), DN(D_6, 4, 0xC07), DN(D_6, 4, 0xC03), DN(___, 0, 0xE00),
};
static const unsigned char P32[] = {
    DN(B_4, 14, 0xC0F), DN(B_4, 14, 0xC08), DN(___, 0, 0xE00),
    DN(___, 0, 0x000),  DN(B_4, 14, 0xC0F), DN(B_4, 14, 0xC08),
    DN(___, 0, 0xE00),  DN(___, 0, 0x000),  DN(B_4, 14, 0xC0F),
    DN(B_4, 14, 0xC08), DN(B_4, 14, 0xC08), DN(B_4, 14, 0xC04),
    DN(B_4, 14, 0xC0F), DN(B_4, 14, 0xC08), DN(B_4, 14, 0xC0F),
    DN(B_4, 14, 0xC08), DN(___, 0, 0xE00),  DN(___, 0, 0x000),
    DN(B_4, 14, 0xC0F), DN(B_4, 14, 0xC08), DN(B_4, 14, 0xC0F),
    DN(B_4, 14, 0xC08), DN(___, 0, 0xE00),  DN(___, 0, 0x000),
    DN(B_4, 14, 0xC0F), DN(B_4, 14, 0xC08), DN(B_4, 14, 0xC08),
    DN(B_4, 14, 0xC04), DN(B_4, 14, 0xC0F), DN(B_4, 14, 0xC08),
    DN(___, 0, 0xE00),  DN(___, 0, 0x000),  DN(Fs5, 14, 0xC0F),
    DN(Fs5, 14, 0xC08), DN(___, 0, 0xE00),  DN(___, 0, 0x000),
    DN(Fs5, 14, 0xC0F), DN(Fs5, 14, 0xC08), DN(___, 0, 0xE00),
    DN(___, 0, 0x000),  DN(Fs5, 14, 0xC0F), DN(Fs5, 14, 0xC08),
    DN(Fs5, 14, 0xC08), DN(Fs5, 14, 0xC04), DN(Fs5, 14, 0xC0F),
    DN(Fs5, 14, 0xC08), DN(Fs5, 14, 0xC0F), DN(Fs5, 14, 0xC08),
    DN(___, 0, 0xE00),  DN(___, 0, 0x000),  DN(Fs5, 14, 0xC0F),
    DN(Fs5, 14, 0xC08), DN(Fs5, 14, 0xC0F), DN(Fs5, 14, 0xC08),
    DN(___, 0, 0xE00),  DN(___, 0, 0x000),  DN(Fs5, 14, 0xC0F),
    DN(Fs5, 14, 0xC08), DN(Fs5, 14, 0xC08), DN(Fs5, 14, 0xC04),
    DN(Fs5, 14, 0xC0F), DN(Fs5, 14, 0xC08), DN(Fs5, 14, 0xC04),
    DN(___, 0, 0x000),
};

static const unsigned char *const order1[] = {P0, P10, P20, P30};
static const unsigned char *const order2[] = {P1, P11, P21, P31};
static const unsigned char *const order3[] = {P2, P12, P22, P32};
static const unsigned char *const order4[] = {P3, P13, P13, P13};

static const hUGEDutyInstr_t duty_instruments[] = {
    {8, 64, 240, 0, 128},
    {8, 128, 240, 0, 128},
    {8, 192, 240, 0, 128},
    {8, 0, 240, 0, 128},
};
static const hUGEWaveInstr_t wave_instruments[] = {
    {0, 32, 0, 0, 128}, {0, 32, 1, 0, 128}, {0, 32, 2, 0, 128},
    {0, 32, 3, 0, 128}, {0, 32, 4, 0, 128}, {0, 32, 5, 0, 128},
    {0, 32, 6, 0, 128}, {0, 32, 0, 0, 128}, {0, 32, 1, 0, 128},
    {0, 32, 2, 0, 128}, {0, 32, 3, 0, 128}, {0, 32, 4, 0, 128},
    {0, 32, 5, 0, 128}, {0, 32, 6, 0, 128},
};
static const hUGENoiseInstr_t noise_instruments[] = {
    {240, 0, 0, 0, 0},
};

static const unsigned char waves[] = {
    165, 215, 201, 225, 188, 154, 118, 49,  12,  186, 222, 96,  27,  202,
    3,   147, 240, 225, 210, 195, 180, 165, 150, 135, 120, 105, 90,  75,
    60,  45,  30,  15,  253, 236, 219, 202, 185, 168, 151, 134, 121, 104,
    87,  70,  53,  36,  19,  2,   222, 254, 220, 186, 154, 169, 135, 119,
    136, 135, 101, 86,  84,  50,  16,  18,  171, 205, 239, 237, 203, 160,
    18,  62,  220, 186, 188, 222, 254, 220, 50,  16,  255, 238, 221, 204,
    187, 170, 153, 136, 119, 102, 85,  68,  51,  34,  17,  0,   255, 255,
    255, 255, 255, 255, 255, 255, 0,   0,   0,   0,   0,   0,   0,   0,
};

const hUGESong_t music_main_menu = {7,
                                    &order_cnt,
                                    order1,
                                    order2,
                                    order3,
                                    order4,
                                    duty_instruments,
                                    wave_instruments,
                                    noise_instruments,
                                    NULL,
                                    waves};
